<?xml version="1.0" standalone="no"?>
<!DOCTYPE svg PUBLIC "-//W3C//DTD SVG 20010904//EN"
 "http://www.w3.org/TR/2001/REC-SVG-20010904/DTD/svg10.dtd">
<svg version="1.0" xmlns="http://www.w3.org/2000/svg"
 width="1200.000000pt" height="1200.000000pt" viewBox="0 0 1200.000000 1200.000000"
 preserveAspectRatio="xMidYMid meet">
<metadata>
Created by potrace 1.11, written by Peter Selinger 2001-2013
</metadata>
<g transform="translate(0.000000,1200.000000) scale(0.100000,-0.100000)"
fill="#000000" stroke="none">
<path d="M0 6000 l0 -6000 6000 0 6000 0 0 6000 0 6000 -6000 0 -6000 0 0
-6000z m2684 3389 c302 -128 727 -244 990 -271 24 -2 -17 -25 -203 -112 l-233
-109 1375 -1375 1375 -1375 29 21 c15 11 637 630 1381 1375 l1353 1353 -231
109 -232 109 140 22 c282 43 621 142 909 266 52 22 96 38 98 36 3 -2 -18 -56
-45 -120 -135 -320 -270 -814 -270 -991 0 -23 -4 -37 -8 -32 -5 6 -55 110
-112 232 l-104 222 -1245 -1239 c-685 -681 -1306 -1299 -1380 -1373 l-134
-135 1209 -1206 1209 -1205 230 -1 230 0 370 -371 370 -371 -265 7 -265 6
-342 342 -343 342 -42 -43 -43 -42 344 -344 343 -344 4 -158 c3 -88 6 -201 8
-252 2 -50 0 -92 -3 -92 -3 0 -168 162 -366 360 l-360 360 -1 203 c-1 112 -4
215 -7 228 -4 14 -515 533 -1214 1232 l-1208 1207 -1208 -1208 -1207 -1207 0
-230 0 -230 -362 -362 c-200 -200 -366 -363 -370 -363 -4 0 -4 116 -1 258 l5
257 341 342 342 343 -43 42 -42 43 -343 -343 -342 -342 -85 -5 c-47 -2 -164
-7 -260 -10 l-175 -5 367 367 368 368 219 1 219 0 1216 1210 c669 665 1216
1211 1216 1215 0 3 -618 620 -1372 1371 -755 751 -1375 1369 -1378 1372 -3 3
-53 -95 -110 -217 -57 -122 -107 -226 -110 -230 -4 -5 -10 25 -14 65 -25 266
-151 693 -313 1066 -8 18 -1 16 131 -39z m3494 -424 l-3 -330 -34 -70 c-57
-115 -180 -215 -287 -232 l-34 -6 0 -123 0 -124 120 0 121 0 -3 -62 -3 -63
-302 0 -303 0 0 62 0 62 123 3 122 3 0 119 0 120 -58 17 c-117 35 -215 121
-270 237 l-32 67 -3 325 -3 325 426 0 426 0 -3 -330z m250 137 c2 -181 1 -193
-18 -212 -14 -14 -33 -20 -64 -20 l-43 0 -1 208 c0 114 2 209 3 212 2 3 30 6
62 5 l58 0 3 -193z m240 -40 c1 -135 -2 -249 -8 -271 -23 -85 -107 -173 -192
-200 l-38 -12 -2 -312 -3 -312 -60 0 -60 0 0 365 0 364 49 3 c27 1 64 7 82 13
42 14 90 68 103 117 6 21 11 135 11 258 l0 221 58 -1 57 0 3 -233z m-3557
-2652 c84 -16 174 -64 213 -116 47 -61 70 -151 64 -251 -10 -175 -114 -295
-286 -332 -29 -6 -138 -11 -242 -11 -183 0 -190 1 -190 20 0 17 7 20 45 20
l45 0 0 320 0 320 -45 0 c-38 0 -45 3 -45 20 0 19 7 20 194 20 106 0 218 -5
247 -10z m5850 0 c84 -16 174 -64 213 -116 47 -61 70 -151 64 -251 -10 -175
-114 -295 -286 -332 -29 -6 -138 -11 -242 -11 -183 0 -190 1 -190 20 0 17 7
20 45 20 l45 0 0 320 0 320 -45 0 c-38 0 -45 3 -45 20 0 19 7 20 194 20 106 0
218 -5 247 -10z m-3919 -3581 l3 -141 58 48 c48 41 55 50 38 52 -43 7 -19 22
34 22 30 0 55 -4 55 -10 0 -5 -8 -10 -17 -10 -10 -1 -36 -16 -58 -35 l-39 -34
49 -72 c27 -40 57 -74 67 -77 41 -10 13 -22 -52 -22 -40 0 -70 4 -70 10 0 6 7
10 15 10 21 0 20 3 -21 60 -29 41 -39 48 -50 39 -19 -16 -19 -99 0 -99 8 0 18
-4 21 -10 4 -6 -22 -10 -69 -10 -44 0 -76 4 -76 10 0 6 9 10 20 10 19 0 20 7
20 190 0 183 -1 190 -20 190 -11 0 -20 5 -20 10 0 6 25 10 55 10 l54 0 3 -141z
m-535 72 c115 -66 110 -255 -8 -321 -39 -22 -58 -25 -166 -28 -85 -3 -123 -1
-123 7 0 6 11 11 25 11 l25 0 0 170 0 170 -25 0 c-14 0 -25 5 -25 11 0 8 39
10 128 7 112 -3 132 -6 169 -27z m2013 14 c58 -30 67 -91 20 -135 l-30 -28 31
-12 c37 -16 49 -37 49 -88 0 -43 -24 -73 -73 -91 -36 -14 -247 -15 -247 -1 0
6 9 10 20 10 19 0 20 7 20 170 0 163 -1 170 -20 170 -11 0 -20 5 -20 10 0 17
216 13 250 -5z m215 -20 c0 -35 -31 -47 -51 -20 -18 25 0 57 29 53 17 -2 22
-10 22 -33z m-1065 -45 l0 -40 40 0 c22 0 40 -4 40 -10 0 -5 -18 -10 -40 -10
l-41 0 3 -107 3 -108 45 2 c41 2 43 1 26 -13 -11 -7 -39 -14 -61 -14 -66 0
-79 21 -83 141 -3 76 -8 99 -18 99 -8 0 -14 5 -14 10 0 6 7 10 15 10 10 0 15
10 15 34 0 28 4 35 23 39 46 9 47 8 47 -33z m1490 0 l0 -40 40 0 c22 0 40 -4
40 -10 0 -5 -18 -10 -40 -10 l-41 0 3 -107 3 -108 45 2 c41 2 43 1 26 -13 -11
-7 -39 -14 -61 -14 -66 0 -79 21 -83 141 -3 76 -8 99 -18 99 -8 0 -14 5 -14
10 0 6 7 10 15 10 10 0 15 10 15 34 0 28 4 35 23 39 46 9 47 8 47 -33z m-2319
-69 c28 -28 29 -33 29 -120 0 -85 1 -91 21 -91 11 0 18 -4 15 -9 -10 -16 -55
-18 -76 -4 -15 11 -24 11 -41 2 -46 -24 -118 -9 -139 31 -30 56 29 107 111 96
l48 -7 -4 42 c-7 62 -31 81 -79 63 -12 -5 -13 -9 -3 -25 10 -17 9 -23 -7 -34
-13 -10 -24 -11 -37 -4 -52 27 10 89 89 89 35 0 49 -6 73 -29z m637 9 c79 -49
80 -177 2 -224 -62 -36 -155 -14 -185 44 -18 35 -19 96 -2 130 18 36 74 70
116 70 20 0 51 -9 69 -20z m513 -9 c28 -28 29 -33 29 -120 0 -85 1 -91 21 -91
11 0 18 -4 15 -9 -10 -16 -55 -18 -76 -4 -15 11 -24 11 -41 2 -46 -24 -118 -9
-139 31 -30 56 29 107 111 96 l48 -7 -4 42 c-7 62 -31 81 -79 63 -12 -5 -13
-9 -3 -25 10 -17 9 -23 -7 -34 -13 -10 -24 -11 -37 -4 -52 27 10 89 89 89 35
0 49 -6 73 -29z m749 -91 c0 -113 1 -120 20 -120 11 0 20 -4 20 -10 0 -13
-137 -13 -145 -1 -3 5 5 11 17 13 22 3 23 7 24 107 0 92 -2 104 -18 109 -36 9
-17 22 32 22 l50 0 0 -120z m220 110 c13 -7 21 -7 25 0 13 21 25 9 25 -25 0
-42 -5 -43 -36 -10 -25 27 -53 32 -85 15 -34 -19 -21 -40 44 -69 34 -15 68
-36 76 -45 18 -21 17 -75 -2 -93 -23 -23 -80 -32 -121 -18 -20 7 -36 9 -36 4
0 -5 -7 -9 -15 -9 -11 0 -15 11 -15 40 0 46 20 54 38 15 12 -27 43 -38 88 -33
49 5 38 39 -23 68 -72 36 -93 57 -93 96 0 57 75 94 130 64z m420 -5 c0 -18 1
-18 36 0 16 8 39 15 50 15 44 0 57 -52 18 -67 -11 -4 -24 2 -36 16 -17 22 -19
22 -43 7 -24 -16 -25 -22 -25 -106 l0 -90 30 0 c17 0 30 -4 30 -10 0 -6 -33
-10 -80 -10 -47 0 -80 4 -80 10 0 6 9 10 20 10 19 0 20 7 20 110 0 103 -1 110
-20 110 -11 0 -20 5 -20 10 0 6 23 10 50 10 38 0 50 -4 50 -15z m358 -5 c79
-49 80 -177 2 -224 -62 -36 -155 -14 -185 44 -18 35 -19 96 -2 130 18 36 74
70 116 70 20 0 51 -9 69 -20z"/>
<path d="M5452 8923 c3 -228 5 -252 24 -294 72 -155 249 -225 402 -159 70 30
146 113 167 182 12 40 15 105 15 285 l0 233 -306 0 -305 0 3 -247z"/>
<path d="M2890 6060 l0 -323 98 5 c137 7 199 41 238 133 26 59 32 264 10 338
-33 114 -99 158 -248 165 l-98 5 0 -323z"/>
<path d="M8740 6060 l0 -323 98 5 c137 7 199 41 238 133 26 59 32 264 10 338
-33 114 -99 158 -248 165 l-98 5 0 -323z"/>
<path d="M4330 2740 l0 -172 55 4 c94 8 133 58 133 168 0 110 -39 160 -133
168 l-55 4 0 -172z"/>
<path d="M6380 2835 l0 -75 43 0 c55 0 77 22 77 78 0 49 -26 72 -82 72 l-38 0
0 -75z"/>
<path d="M6380 2655 l0 -85 40 0 c82 0 123 46 101 113 -13 39 -44 57 -101 57
l-40 0 0 -85z"/>
<path d="M4722 2658 c-7 -7 -12 -24 -12 -38 0 -32 17 -50 46 -50 29 0 54 25
54 55 0 38 -61 60 -88 33z"/>
<path d="M5375 2776 c-15 -11 -20 -30 -23 -85 -5 -86 12 -121 57 -121 37 0 52
20 58 74 13 111 -33 176 -92 132z"/>
<path d="M5872 2658 c-7 -7 -12 -24 -12 -38 0 -32 17 -50 46 -50 29 0 54 25
54 55 0 38 -61 60 -88 33z"/>
<path d="M7635 2776 c-15 -11 -20 -30 -23 -85 -5 -86 12 -121 57 -121 37 0 52
20 58 74 13 111 -33 176 -92 132z"/>
</g>
</svg>
